# xmcd
#
# Track frame offsets:
#	183
#	16133
#	43183
#	61630
#	76173
#	88923
#	99573
#	115398
#	137220
#	150870
#	163473
#	180270
#	201265
#	216033
#	233313
#	256875
#	279280
#	301108
#
# Disc length: 4352 seconds
#
# Revision: 3
# Processed by: cddbd v1.5.2PL0 Copyright (c) Steve Scherf et al.
# Submitted via: audiograbber 1.83.01
#
DISCID=de10fe12
DTITLE=Vince Weber - The Best Yet, CD 1
DYEAR=1995
DGENRE=Blues
TTITLE0=I'm The Boogie Man
TTITLE1=Boogie Woogie Runner
TTITLE2=Roll 'Em Pete
TTITLE3=Speed Freak
TTITLE4=I've Got To Move
TTITLE5=Keep A-Knockin'
TTITLE6=I Used To Be Happy
TTITLE7=Nobody Knows You When You're...
TTITLE8=My Life Is A Boogie
TTITLE9=Cherry Red
TTITLE10=Let's Boogie
TTITLE11=Vince The Prince
TTITLE12=What's Wrong With Me
TTITLE13=Kiddin' Music
TTITLE14=Everythuing But Fight
TTITLE15=I've Got My Mojo Working
TTITLE16=White Man's Swing
TTITLE17=Never Blue For Long
EXTD=
EXTT0=
EXTT1=
EXTT2=
EXTT3=
EXTT4=
EXTT5=
EXTT6=
EXTT7=
EXTT8=
EXTT9=
EXTT10=
EXTT11=
EXTT12=
EXTT13=
EXTT14=
EXTT15=
EXTT16=
EXTT17=
PLAYORDER=
